/* XPM */
static const char * Bolso_xpm[] = {
"16 16 95 2",
"  	c None",
". 	c #000000",
"+ 	c #928E89",
"@ 	c #928F89",
"# 	c #918F8A",
"$ 	c #918F89",
"% 	c #928F8A",
"& 	c #928E8A",
"* 	c #86847F",
"= 	c #87847F",
"- 	c #86847E",
"; 	c #7B7974",
"> 	c #7C7974",
", 	c #7B7975",
"' 	c #C1C0BE",
") 	c #DCDBDA",
"! 	c #CBC9C7",
"~ 	c #84827E",
"{ 	c #7B7874",
"] 	c #7B7875",
"^ 	c #706E6A",
"/ 	c #706E69",
"( 	c #706D69",
"_ 	c #706D6A",
": 	c #D9D8D7",
"< 	c #959492",
"[ 	c #6F6E69",
"} 	c #64635F",
"| 	c #64625F",
"1 	c #64625E",
"2 	c #D6D5D4",
"3 	c #64635E",
"4 	c #65635F",
"5 	c #65625F",
"6 	c #595754",
"7 	c #D3D2D1",
"8 	c #585753",
"9 	c #595753",
"0 	c #C8C7C6",
"a 	c #585754",
"b 	c #595854",
"c 	c #4D4C49",
"d 	c #4D4C4A",
"e 	c #D0CFCE",
"f 	c #D0CFCF",
"g 	c #E7E7E7",
"h 	c #898886",
"i 	c #4E4C49",
"j 	c #43423F",
"k 	c #42413F",
"l 	c #42413E",
"m 	c #43413F",
"n 	c #CDCCCC",
"o 	c #5C5A59",
"p 	c #CDCDCC",
"q 	c #5C5A58",
"r 	c #383634",
"s 	c #373734",
"t 	c #373635",
"u 	c #383734",
"v 	c #CAC9C9",
"w 	c #383735",
"x 	c #6D6C6B",
"y 	c #959493",
"z 	c #383635",
"A 	c #373735",
"B 	c #2D2D2B",
"C 	c #2E2C2B",
"D 	c #C7C7C6",
"E 	c #2E2D2B",
"F 	c #2D2C2B",
"G 	c #8F8F8E",
"H 	c #828080",
"I 	c #232322",
"J 	c #242422",
"K 	c #242322",
"L 	c #C5C4C4",
"M 	c #D3D3D3",
"N 	c #999897",
"O 	c #242321",
"P 	c #1B1A19",
"Q 	c #1B1B1A",
"R 	c #1B1B19",
"S 	c #1B1A1A",
"T 	c #131211",
"U 	c #121312",
"V 	c #131212",
"W 	c #121212",
"X 	c #131311",
"Y 	c #0C0C0B",
"Z 	c #0C0B0B",
"` 	c #0B0B0B",
" .	c #0C0B0A",
"..	c #0B0B0A",
"+.	c #0B0C0A",
". . . . . . . . . . . . . . . . ",
". + + @ # $ % @ @ @ % @ $ @ & . ",
". * = * * * = * - = * * - * * . ",
". ; > ; , ' ) ) ) ! ~ { ; ] ; . ",
". ^ / ( _ : ^ ^ _ < : ( ( / [ . ",
". } | 1 1 2 3 } 4 | 2 } 1 1 5 . ",
". 6 6 6 6 7 6 8 9 | 0 6 a b 6 . ",
". c c c d e e f e g h c i c c . ",
". j k l m n m k k o p q l k m . ",
". r s t u v s w w w x y z A A . ",
". B B B C D B E F B G H B C C . ",
". I J K K L L L L M N O O K K . ",
". P Q P P R Q P P P R S P R S . ",
". T U T V V W V V V U V U V X . ",
". Y Z Z `  ...` +.Y Z ..Z ` Y . ",
". . . . . . . . . . . . . . . . "};
